<svg id="icons_payment_secured_payment" data-name="icons/payment/secured_payment" xmlns="http://www.w3.org/2000/svg" width="64" height="64" viewBox="0 0 64 64">
  <path id="shape" d="M2,56a2,2,0,0,1-2-2V12a2,2,0,0,1,1.622-1.964l52-10A2.027,2.027,0,0,1,54,0a2,2,0,0,1,2,2V28a2,2,0,1,1-4,0V15.441L4,24.671V51.6l19.643-3.571a2,2,0,0,1,2.326,1.609,2,2,0,0,1-1.611,2.326l-22,4A2.029,2.029,0,0,1,2,56ZM52,4.423h0L4,13.653v4.909L52,9.33V4.423ZM50,52H30a2,2,0,0,1-2-2V38a2,2,0,0,1,2-2h2c0-7.756,1.795-10,8-10s8,2.243,8,10h2a2,2,0,0,1,2,2V50A2,2,0,0,1,50,52ZM32,40v8H48V40Zm8-10c-1.927,0-2.974.447-3.5,1.5-.5,1-.5,2.461-.5,4.487V36h8v-.016c0-2.026,0-3.49-.5-4.487C42.974,30.448,41.927,30,40,30Z" transform="translate(4 3.999)" fill="#0082c3"/>
</svg>
