<svg xmlns="http://www.w3.org/2000/svg" width="50" height="50" viewBox="0 0 50 50">
  <g id="icons_payment_payment" data-name="icons/payment/payment" transform="translate(0 0)">
    <path id="shape" d="M14.281,50a1.709,1.709,0,0,1-1.25-.555,1.984,1.984,0,0,1-.53-1.368V27.858a22.836,22.836,0,0,1-4.834-3.422c-.353-.38-.763-.88-1.373-1.674l-.7-.923-.025-.033c-.33-.436-.666-.882-.792-1.048-.325-.423-.565-.731-.776-1a22.393,22.393,0,0,0-2.217-2.454A1.86,1.86,0,0,1,0,15.384c0-1.654.8-3.859,2.515-6.939.421-.754.877-1.528,1.356-2.3.756-1.222,1.6-2.505,2.512-3.813.276-.4.555-.789.829-1.17.151-.209.26-.358.321-.441A1.728,1.728,0,0,1,8.924,0a1.783,1.783,0,0,1,1.64,1.151l.006.01c.013.022.03.054.055.093a4.765,4.765,0,0,0,.644.77,15.547,15.547,0,0,0,4.738,2.954,45.752,45.752,0,0,0,9.315,2.745c2.348.465,3.639,2.39,6.1,7.581L47.846,11.58a1.687,1.687,0,0,1,.371-.042A1.859,1.859,0,0,1,50,13.461V40.385a1.9,1.9,0,0,1-1.418,1.881L14.654,49.958A1.684,1.684,0,0,1,14.281,50Zm2.938-19.854-1.148.261v15.3l30.357-6.883v-15.3L32.334,26.719c.934,2.984.653,5.863-.715,7.333a2.957,2.957,0,0,1-2.288,1.037c-1.167,0-2.653-.544-5.129-1.878-.325-.174-.663-.362-.98-.54a26.006,26.006,0,0,0-3.579-1.9A7.752,7.752,0,0,1,17.219,30.146ZM9,5C8.221,6.117,7.5,7.221,6.843,8.278c-.463.748-.889,1.47-1.266,2.146A23.209,23.209,0,0,0,3.819,14.2a16.2,16.2,0,0,1,2.894,3.057c.3.378.562.714.823,1.057l.5.665L8.051,19c.383.507.844,1.117,1,1.316.528.689.88,1.121,1.143,1.4,1.522,1.64,8.236,5.208,9.452,5.208a5.819,5.819,0,0,1,2.554.852c.362.188.763.406,1.3.708l.327.185.019.011c.35.2.845.479,1.03.582.38.213.666.37.927.511a15.342,15.342,0,0,0,2.838,1.274,3.085,3.085,0,0,0,.574.114c.46-.921-.128-3.34-.942-4.805C27.786,25.481,27.258,25,26.785,25c-2.094,0-4.3-1.306-6.061-3.577a7.772,7.772,0,0,1-1.435-2.7,3.026,3.026,0,0,1,.337-2.468,2.1,2.1,0,0,1,1.8-.87h5.987c-1.286-2.53-2.156-3.763-2.737-3.877A49.137,49.137,0,0,1,14.665,8.543,19.33,19.33,0,0,1,9,5ZM46.429,15.833h0l-21.161,4.8a3.005,3.005,0,0,0,1.519.524A4.857,4.857,0,0,1,30.508,23.2l15.92-3.61V15.833Z" transform="translate(0 0)" fill="#0082c3"/>
  </g>
</svg>
