<svg id="icons_standard_cart" data-name="icons/standard/cart" xmlns="http://www.w3.org/2000/svg" width="64" height="64" viewBox="0 0 64 64">
  <path id="shape" d="M46,54a6,6,0,1,1,6-6A6.006,6.006,0,0,1,46,54Zm0-8a2,2,0,1,0,2,2A2,2,0,0,0,46,46ZM28,54a6,6,0,1,1,6-6A6.006,6.006,0,0,1,28,54Zm0-8a2,2,0,1,0,2,2A2,2,0,0,0,28,46ZM18,40a2,2,0,0,1-1.926-1.465L6.637,4.564l-4,1.336A2,2,0,0,1,1.368,2.1l6-2a2,2,0,0,1,2.56,1.363l1.82,6.552A1.966,1.966,0,0,1,12,8H54a2,2,0,0,1,2,2V32a1.992,1.992,0,0,1-1.67,1.973l-36,6A2.022,2.022,0,0,1,18,40ZM12.854,12h0l6.592,23.729L52,30.307V12H12.854Z" transform="translate(3.999 3.999)" fill="#0082c3"/>
</svg>
