<svg id="icons_delivery_home_delivery" data-name="icons/delivery/home_delivery" xmlns="http://www.w3.org/2000/svg" width="55" height="56" viewBox="0 0 55 56">
  <path id="shape" d="M13.715,42A6.764,6.764,0,0,1,9.1,40.181a7.035,7.035,0,0,1-2.211-4.468L1.918,36.721a1.523,1.523,0,0,1-.3.03,1.549,1.549,0,0,1-1.136-.506A1.808,1.808,0,0,1,0,35V7a1.719,1.719,0,0,1,1.321-1.72L27.227.03a1.519,1.519,0,0,1,.3-.03,1.689,1.689,0,0,1,1.615,1.75V6.67l7.35-1.386a1.975,1.975,0,0,1,.363-.034,1.942,1.942,0,0,1,.956.249L47.1,10.75a1.742,1.742,0,0,1,.9,1.5v14a1.785,1.785,0,0,1-1.492,1.717l-.426.079a7.235,7.235,0,0,1,.2,1.7,6.851,6.851,0,0,1-13.667.833l-4.683.884a1.936,1.936,0,0,1-.245.03l-7.4,1.5a7.155,7.155,0,0,1,.285,2A6.938,6.938,0,0,1,13.715,42Zm0-10.5A3.5,3.5,0,1,0,17.143,35,3.469,3.469,0,0,0,13.715,31.5ZM39.429,26.25a3.5,3.5,0,1,0,3.428,3.5A3.468,3.468,0,0,0,39.429,26.25ZM25.715,19.938,3.428,24.2v8.689l4.064-.838A6.88,6.88,0,0,1,13.715,28a6.768,6.768,0,0,1,4.613,1.821L25.715,28.3v-8.36ZM36.5,8.85l-7.361,1.336v17.43l4.028-.731a6.865,6.865,0,0,1,6.258-4.134,6.737,6.737,0,0,1,4.9,2.109l.238-.044V13.241L36.5,8.85ZM25.715,3.859,3.428,8.453V20.642l22.287-4.265V3.859Z" transform="translate(3 9)" fill="#0082c3"/>
</svg>
