<svg id="icons_delivery_purchase" data-name="icons/delivery/purchase" xmlns="http://www.w3.org/2000/svg" width="55" height="55" viewBox="0 0 55 55">
  <path id="shape" d="M1.747,48a1.758,1.758,0,0,1-1.225-.494A1.682,1.682,0,0,1,0,46.285V12a1.734,1.734,0,0,1,1.75-1.714H7A10.407,10.407,0,0,1,17.5,0,10.406,10.406,0,0,1,28,10.286h5.244A1.734,1.734,0,0,1,35,12V29.143a1.75,1.75,0,0,1-3.5,0V13.714H3.5V44.089l11.825-2.9a1.789,1.789,0,0,1,.426-.052,1.74,1.74,0,0,1,1.7,1.3,1.674,1.674,0,0,1-.2,1.3,1.737,1.737,0,0,1-1.077.781l-14,3.428A1.806,1.806,0,0,1,1.747,48ZM17.5,3.428a6.937,6.937,0,0,0-7,6.858h14a6.749,6.749,0,0,0-2.052-4.847A7.022,7.022,0,0,0,17.5,3.428ZM22.757,48a1.748,1.748,0,0,1-1.631-1.078l-7-17.142a1.654,1.654,0,0,1,.17-1.591,1.761,1.761,0,0,1,1.446-.765,1.8,1.8,0,0,1,.659.127l17.5,6.858a1.718,1.718,0,0,1,1.064,1.246,1.687,1.687,0,0,1-.477,1.557l-4.014,3.933,4.011,3.928a1.692,1.692,0,0,1,0,2.425,1.777,1.777,0,0,1-2.476,0L28,43.568l-4.01,3.93A1.751,1.751,0,0,1,22.757,48ZM18.893,32.219l4.5,11.016,6.745-6.609Z" transform="translate(10 3)" fill="#0082c3"/>
</svg>
