<svg id="icons_delivery_purchase" data-name="icons/delivery/purchase" xmlns="http://www.w3.org/2000/svg" width="64" height="64" viewBox="0 0 64 64">
  <path id="shape" d="M2,56a2,2,0,0,1-2-2V14a2,2,0,0,1,2-2H8a12,12,0,1,1,24,0H38a2,2,0,0,1,2,2V34a2,2,0,1,1-4,0V16H4V51.439L17.516,48.06a2,2,0,1,1,.968,3.881l-16,4A2.025,2.025,0,0,1,2,56ZM20.005,4a8.009,8.009,0,0,0-8,8H28a8.01,8.01,0,0,0-8-8Zm6.006,52a2,2,0,0,1-1.864-1.257l-8-20a1.963,1.963,0,0,1,.194-1.857,1.979,1.979,0,0,1,2.405-.744l20,8a2,2,0,0,1,.671,3.271L34.83,48l4.585,4.583a2,2,0,0,1-2.83,2.83L32,50.83l-4.583,4.585A1.98,1.98,0,0,1,26.011,56ZM21.595,37.589l5.141,12.852,7.709-7.711Z" transform="translate(12 4)" fill="#0082c3"/>
</svg>
