<svg xmlns="http://www.w3.org/2000/svg" width="72.42" height="48.032" viewBox="0 0 72.42 48.032">
  <path id="Tracé_160" data-name="Tracé 160" d="M79.281,17.862q-1.72-2.221-3.456-4.43l-1.888-2.414a5.256,5.256,0,0,0-6.894-1.335c-1.288.766-2.562,1.561-3.837,2.354l-1.407.878a4.689,4.689,0,0,1-4.578.372c-1.08-.477-2.159-1.01-3.2-1.527-.589-.291-1.176-.582-1.769-.865a7.419,7.419,0,0,0-7.545.45.816.816,0,0,1-.965.034l-.376-.17a15.781,15.781,0,0,0-3.131-1.16c-2.087-.452-4.179-.074-6.791,1.218-1.637.809-3.4,1.563-5.292,1.106a20.607,20.607,0,0,1-4.134-1.516,6.751,6.751,0,0,0-8.34,1.713c-1.353,1.662-2.833,3.272-4.264,4.831-.609.661-1.218,1.324-1.819,1.993a4.786,4.786,0,0,0,.314,7.012c.589.542,1.2,1.059,1.816,1.577l4.1,3.51-.685.723c-.7.739-1.389,1.463-2.06,2.2a4.743,4.743,0,0,0-.128,6.28A6.6,6.6,0,0,0,15.6,42.758a4.734,4.734,0,0,0,1.1,5.317,5.047,5.047,0,0,0,5.465,1.72,6.311,6.311,0,0,0,3.436,3.46,5,5,0,0,0,4.02-.163c.029.06.058.119.092.177a5.978,5.978,0,0,0,4.435,3.272,5.1,5.1,0,0,0,4.4-1.81c.493-.546,1.006-1.077,1.53-1.617l.468-.484.784.717c.764.7,1.51,1.375,2.235,2.072a5.172,5.172,0,0,0,3.579,1.545,4.86,4.86,0,0,0,3.243-1.3,11.924,11.924,0,0,0,1.471-1.7l.349-.457c1.337,1.317,2.968,2.526,5.308,1.913a5.95,5.95,0,0,0,4.22-4.22c3.946-.06,5.91-1.991,6.148-6.045a5.849,5.849,0,0,0,4.186-4.168c.674-2.4-.636-4.1-2.123-5.454q1.267-1.4,2.517-2.793c2.078-2.311,4.226-4.7,6.363-7A5.736,5.736,0,0,0,79.281,17.862ZM55.78,32.509l-2.168,2.329,5.9,5.467c1.5,1.382,2.994,2.764,4.475,4.161a1.891,1.891,0,0,1,.708,1.288,2.249,2.249,0,0,1-.773,1.523,1.7,1.7,0,0,1-2.714.132l-9.044-8.354c-.067-.063-.137-.121-.226-.19l-.459-.381-2.172,2.356L51.54,42.9c1.9,1.745,3.783,3.48,5.653,5.236a5.36,5.36,0,0,1,1.263,1.527c.361.791-.074,1.7-1.16,2.421a1.65,1.65,0,0,1-2.069-.262c-2.11-1.931-4.213-3.868-6.343-5.83l-2.367-2.179-2.233,2.349,3.669,3.38c.3.275.6.553.889.842a1.567,1.567,0,0,1,.034,2.211l-.143.163c-.112.13-.226.26-.345.381a1.675,1.675,0,0,1-2.437.069c-.448-.41-.894-.824-1.337-1.239-.643-.6-1.283-1.194-1.937-1.778-.125-.114-.134-.128-.065-.311a4.808,4.808,0,0,0-1.3-5.413,5.167,5.167,0,0,0-3.577-1.72.323.323,0,0,1-.125-.018.493.493,0,0,1-.069-.186,6.017,6.017,0,0,0-4-4.674,4.86,4.86,0,0,0-1.169-4.491,5.5,5.5,0,0,0-4.148-2.1A5.7,5.7,0,0,0,23.892,26.6c-2.589-.7-4.3.817-5.807,2.546L16.4,27.712c-.43-.37-.865-.737-1.3-1.1-.992-.84-2.018-1.707-2.994-2.594a1.509,1.509,0,0,1-.1-2.43c2.195-2.484,4.374-4.914,6.477-7.223a3.172,3.172,0,0,1,3.731-.73c.372.157.739.32,1.109.484.7.309,1.4.618,2.105.894a10.621,10.621,0,0,0,8.726-.49l.459-.219a9.63,9.63,0,0,1,3.429-1.142,6.024,6.024,0,0,1,3.2.578l-.334.237c-.629.45-1.245.894-1.872,1.315a5.926,5.926,0,0,0-2.815,3.23,4.739,4.739,0,0,0,.549,3.928,5.586,5.586,0,0,0,4.511,3,5.419,5.419,0,0,0,3.227-.806l1.633-1c1.626-.981,3.2-.811,4.968.529.983.748,1.984,1.474,2.985,2.2,1.471,1.066,2.994,2.17,4.428,3.328,1.669,1.348,3.288,2.826,4.851,4.258q.813.742,1.628,1.48c1.113,1,2.255,2.069,3.492,3.259a1.519,1.519,0,0,1,.132,2.112c-.558.73-1,1.243-1.727,1.18a2.323,2.323,0,0,1-1.279-.513c-2.3-2.081-4.578-4.193-6.856-6.3l-2.3-2.128a2.858,2.858,0,0,0-.253-.2Zm-23.272,18.3a3.281,3.281,0,0,1,.473-.829c.947-1.059,1.993-2.152,3.29-3.445.847-.844,1.66-.777,2.719.224a1.659,1.659,0,0,1,.228,2.551c-1.086,1.2-2.244,2.4-3.442,3.581a1.54,1.54,0,0,1-2.253-.047c-.894-.833-1.055-1.091-1.176-1.689C32.4,51.045,32.456,50.928,32.508,50.812ZM22.786,29.645a1.341,1.341,0,0,1,.643.17,2.455,2.455,0,0,1,1.516,2.092A1.688,1.688,0,0,1,24.5,32.95c-1.944,2.1-3.928,4.179-5.9,6.177a3.509,3.509,0,0,1-.891.58c-.085.047-.168.087-.242.13A2.692,2.692,0,0,1,15.2,38.193c-.11-.215-.446-.867.475-1.819,1.053-1.086,2.094-2.181,3.136-3.274q1.317-1.381,2.638-2.757A1.912,1.912,0,0,1,22.786,29.645ZM19.1,43.318c2.363-2.526,4.932-5.2,7.85-8.175a3.124,3.124,0,0,1,.842-.538c.076-.04.15-.076.215-.112a2.739,2.739,0,0,1,2.284,1.561c.125.222.513.9-.52,1.975q-2.852,2.983-5.7,5.973l-1.9,1.991c-.73.764-1.413.981-2.087.665-.616-.289-1.709-1.171-1.579-2A2.639,2.639,0,0,1,19.1,43.318Zm6.7,3.539,1.633-1.693q1.744-1.807,3.5-3.608a1.792,1.792,0,0,1,1.25-.645h.007a2.312,2.312,0,0,1,1.536.824,1.684,1.684,0,0,1,.063,2.658c-.6.625-1.2,1.25-1.794,1.877-1.113,1.169-2.226,2.338-3.364,3.483a3.214,3.214,0,0,1-.847.542l-.2.1a2.678,2.678,0,0,1-2.307-1.619C24.947,48.164,25.108,47.573,25.8,46.856ZM76.593,23.369l-8.985,9.937-.022.027q-.847-.763-1.678-1.523c-1.433-1.31-2.914-2.663-4.441-3.9-1.81-1.471-3.722-2.871-5.572-4.224q-.951-.7-1.9-1.4l-.318-.235a16.722,16.722,0,0,0-2.155-1.442,7,7,0,0,0-3.283-.858,7.329,7.329,0,0,0-3.684,1.062l-.32.186A10.784,10.784,0,0,1,41.8,22.166c-.764.211-1.4-.159-2.128-1.232a1.524,1.524,0,0,1-.139-1.841,2.726,2.726,0,0,1,.712-.688c.779-.551,1.563-1.093,2.347-1.637,1.167-.809,2.331-1.615,3.48-2.446a4.583,4.583,0,0,1,5.1-.374l1.012.506c1.252.627,2.549,1.277,3.863,1.837a7.786,7.786,0,0,0,7.431-.6c.972-.587,1.935-1.189,2.9-1.792.719-.45,1.436-.9,2.157-1.342a2.046,2.046,0,0,1,2.869.488q2.691,3.4,5.355,6.824A2.466,2.466,0,0,1,76.593,23.369Z" transform="translate(-8.214 -8.932)" fill="#0082c3"/>
</svg>
